# xmcd CD database file
# Copyright (C) 1993-1998 Ti Kan
# 
# Track frame offsets:
#     150
#     24952
#     40882
#     89717
#     104360
#     111720
#     130210
#     140570
#     165980
#     185272
#     242195
# 
# Disc length: 4247 seconds
# 
# Revision: 1
# Processed by: cddbd v1.4b41PL1 Copyright (c) Steve Scherf et al.
# Submitted via: DiscPlay 4.0.4
# 
DISCID=9710950b
DTITLE=Frank Zappa - Zappa in New York - Boot
DYEAR=1900
DGENRE=
TTITLE0=Titties and Beer
TTITLE1=I promise not to come in your mouth
TTITLE2=Punky's Whips
TTITLE3=Sofa
TTITLE4=Manx needs Women
TTITLE5=The Black Page Drum Solo/Black Page #1
TTITLE6=Big Leg Emma
TTITLE7=Black Page #2
TTITLE8=Honey, don't you want a man like me?
TTITLE9=the Illinois Enema Bandit
TTITLE10=The Purple Lagoon
EXTD=
EXTT0=
EXTT1=
EXTT2=
EXTT3=
EXTT4=
EXTT5=
EXTT6=
EXTT7=
EXTT8=
EXTT9=
EXTT10=
PLAYORDER=
